# xmcd
#
# Track frame offsets:
# 150
# 11329
# 29415
# 46153
# 69814
# 87074
# 107752
# 128098
# 141433
# 155725
#
# Disc length: 2331 seconds
#
#
# Revision: 0
# Processed by: cddbd v1.5.1PL2 Copyright (c) Steve Scherf et al.
# Submitted via: FreeRIP 2.944 
#
DISCID=7909190a
DTITLE=Rodney Crowell  - Soul Searchin'
DYEAR=1995
DGENRE=Country
TTITLE0=Above and Beyond(The Call of Love)
TTITLE1=Soul Searchin'
TTITLE2=She Loves The Jerk
TTITLE3=The Last Waltz
TTITLE4=Stay (Don't Be Cruel)
TTITLE5=Lookinf For You
TTITLE6=The Faith Is Mine
TTITLE7=We Gotta Go On Meeting Like This
TTITLE8=Crazy Baby
TTITLE9=Now That We're Alone
EXTD=
EXTT0=
EXTT1=
EXTT2=
EXTT3=
EXTT4=
EXTT5=
EXTT6=
EXTT7=
EXTT8=
EXTT9=
PLAYORDER=
